<svg xmlns="http://www.w3.org/2000/svg" width="31.376" height="31.41" viewBox="0 0 31.376 31.41"><defs><style>.cls-1{fill:#fff;fill-rule:evenodd;opacity:.8}</style></defs><path id="Инста" class="cls-1" d="M87.865 2355.23a15.69 15.69 0 1 1-15.692 15.69 15.688 15.688 0 0 1 15.692-15.69zm6.272 23.61a1.745 1.745 0 0 0 1.745-1.75v-12.31a1.743 1.743 0 0 0-1.745-1.74H81.809a1.743 1.743 0 0 0-1.745 1.74v12.31a1.745 1.745 0 0 0 1.745 1.75h12.327zm-1.375-9.1a4.921 4.921 0 1 1-9.529 0h-1.38v6.78a.609.609 0 0 0 .611.61h11.065a.609.609 0 0 0 .611-.61v-6.78h-1.379zM88 2368.13a2.848 2.848 0 1 1 0 5.68 2.84 2.84 0 0 1 0-5.68zm3.7-3.31h1.86a.609.609 0 0 1 .611.61v1.86a.609.609 0 0 1-.611.61H91.7a.609.609 0 0 1-.611-.61v-1.86a.609.609 0 0 1 .611-.61z" transform="translate(-72.188 -2355.22)"/></svg>