<svg xmlns="http://www.w3.org/2000/svg" width="47.375" height="47.38" viewBox="0 0 47.375 47.38"><defs><style>.cls-1{fill:#323232;fill-rule:evenodd}</style></defs><path id="Листик" class="cls-1" d="M64.437 1498.62s-22.24-10.18 0-32.75c22.241 22.57 0 32.75 0 32.75zm7.516-17.18l-6.537 4.16-.021 3.68 6.894-4.41a13.366 13.366 0 0 0-.336-3.43zm-15.39 3.19l6.833 4.48v-3.62l-6.453-4.15a13.627 13.627 0 0 0-.38 3.29zm6.833-1.52v-3.63L59 1476.1a21.745 21.745 0 0 0-1.464 3.24zm0-6.09v-7.04a39.181 39.181 0 0 0-3.356 4.42zm2 .28l3.63-2.6a39.493 39.493 0 0 0-3.63-4.82v7.42zm.021 2.3l-.021 3.68 5.981-3.85a21.739 21.739 0 0 0-1.337-3.01zm6.443 7.9l-6.443 4.1-.021 4.16a15.3 15.3 0 0 0 6.463-8.26zm-8.463 8.2v-4.21l-6.417-4.13c1.105 4.14 4.32 6.93 6.42 8.34zm1.1-36.9a23.7 23.7 0 1 1-23.7 23.7 23.7 23.7 0 0 1 23.703-23.7zm0 45.4a21.7 21.7 0 1 1 21.7-21.7 21.722 21.722 0 0 1-21.697 21.7z" transform="translate(-40.813 -1458.81)"/></svg>